# xmcd CD database file
#
# Track frame offsets:
#	150
#	69608
#	98394
#	122320
#	144557
#	170750
#	203100
#	244329
#	280903
#	322372
#
# Disc length: 4648 seconds
#
# Revision: 0
# Processed by: cddbd v1.5.2PL0 Copyright (c) Steve Scherf et al.
# Submitted via: CDex 1.51
#
DISCID=9512260a
DTITLE=Stadtharmonie Zürich Oerlikon - Seebach - Lord of the Rings
DYEAR=2006
DGENRE=Wind Band
TTITLE0=Oliver Waespi - Il Cantico
TTITLE1=Bert Appermont - Egmont I. Die Hochzeit - Philip II und Egmont
TTITLE2=Bert Appermont - Egmont II. Fato Prudentia Minor
TTITLE3=Bert Appermont - Egmont III. Vereint gegen Spanien
TTITLE4=Johan de Meij - The Lord of the Rings I. Gandalf
TTITLE5=Johan de Meij - The Lord of the Rings II. Lothlorien
TTITLE6=Johan de Meij - The Lord of the Rings III. Gollum
TTITLE7=Johan de Meij - The Lord of the Rings IV. Journey in the Dark
TTITLE8=Johan de Meij - The Lord of the Rings V. Hobbits
TTITLE9=Jan Van der Roost - Canterbury Choral
EXTD=YEAR: 2006
EXTT0=
EXTT1=
EXTT2=
EXTT3=
EXTT4=
EXTT5=
EXTT6=
EXTT7=
EXTT8=
EXTT9=
PLAYORDER=
